<svg xmlns="http://www.w3.org/2000/svg" width="19" height="15" viewBox="0 0 19 15">
  <defs>
    <style>
      .cls-1 {
        fill: #333;
        fill-rule: evenodd;
      }
    </style>
  </defs>
  <path class="cls-1" d="M16.863,0.713H2.131A1.493,1.493,0,0,0,.658,2.225V2.731H18.336V2.225A1.493,1.493,0,0,0,16.863.713Zm-16.2,12.6A1.493,1.493,0,0,0,2.131,14.82H16.863a1.493,1.493,0,0,0,1.473-1.511V3.736H0.658v9.572ZM11.461,6a0.249,0.249,0,0,1,.245-0.252h4.42A0.249,0.249,0,0,1,16.372,6V6.508a0.249,0.249,0,0,1-.245.252H11.707a0.249,0.249,0,0,1-.245-0.252V6Zm0,2.015a0.249,0.249,0,0,1,.246-0.251h4.42a0.249,0.249,0,0,1,.245.252V8.525a0.249,0.249,0,0,1-.245.252h-4.42a0.249,0.249,0,0,1-.245-0.252V8.017Zm0,2.015a0.249,0.249,0,0,1,.245-0.252h4.42a0.249,0.249,0,0,1,.245.252v0.506a0.249,0.249,0,0,1-.245.252H11.707a0.249,0.249,0,0,1-.245-0.252V10.033ZM6.06,5.751A2.016,2.016,0,1,1,4.1,7.766,1.99,1.99,0,0,1,6.06,5.751ZM2.718,12.179a1.973,1.973,0,0,1,1.869-1.392H4.839a3.087,3.087,0,0,0,2.443,0H7.533A1.973,1.973,0,0,1,9.4,12.179a0.5,0.5,0,0,1-.343.607,0.469,0.469,0,0,1-.135.016H3.2A0.49,0.49,0,0,1,2.7,12.317,0.5,0.5,0,0,1,2.718,12.179Z"/>
</svg>
