<svg id="instagram" xmlns="http://www.w3.org/2000/svg" width="37.556" height="37.556" viewBox="0 0 37.556 37.556">
  <g id="Group_5935" data-name="Group 5935">
    <g id="Group_5934" data-name="Group 5934">
      <path id="Path_2209" data-name="Path 2209" d="M25.82,0H11.736A11.738,11.738,0,0,0,0,11.736V25.82A11.738,11.738,0,0,0,11.736,37.556H25.82A11.738,11.738,0,0,0,37.556,25.82V11.736A11.738,11.738,0,0,0,25.82,0Zm8.215,25.82a8.224,8.224,0,0,1-8.215,8.215H11.736A8.224,8.224,0,0,1,3.521,25.82V11.736a8.224,8.224,0,0,1,8.215-8.215H25.82a8.224,8.224,0,0,1,8.215,8.215Z" fill="#c8c8c8"/>
    </g>
  </g>
  <g id="Group_5937" data-name="Group 5937" transform="translate(9.389 9.389)">
    <g id="Group_5936" data-name="Group 5936">
      <path id="Path_2210" data-name="Path 2210" d="M137.389,128a9.389,9.389,0,1,0,9.389,9.389A9.389,9.389,0,0,0,137.389,128Zm0,15.257a5.868,5.868,0,1,1,5.868-5.868A5.876,5.876,0,0,1,137.389,143.257Z" transform="translate(-128 -128)" fill="#c8c8c8"/>
    </g>
  </g>
  <g id="Group_5939" data-name="Group 5939" transform="translate(27.62 7.434)">
    <g id="Group_5938" data-name="Group 5938">
      <ellipse id="Ellipse_373" data-name="Ellipse 373" cx="1.251" cy="1.251" rx="1.251" ry="1.251" fill="#c8c8c8"/>
    </g>
  </g>
</svg>
