<svg xmlns="http://www.w3.org/2000/svg" width="37.553" height="34.304" viewBox="0 0 37.553 34.304">
  <g id="linkedin" transform="translate(0 -23.916)">
    <g id="Group_7393" data-name="Group 7393" transform="translate(0 23.916)">
      <path id="Path_13102" data-name="Path 13102" d="M1.306,204.31H6.533A1.306,1.306,0,0,0,7.839,203V180.156a1.306,1.306,0,0,0-1.306-1.306H1.306A1.306,1.306,0,0,0,0,180.156V203A1.306,1.306,0,0,0,1.306,204.31Z" transform="translate(0 -170.006)" fill="#c8c8c8"/>
      <path id="Path_13103" data-name="Path 13103" d="M1.306,31.169H6.533a1.306,1.306,0,0,0,1.306-1.306V25.222a1.306,1.306,0,0,0-1.306-1.306H1.306A1.306,1.306,0,0,0,0,25.222v4.642A1.306,1.306,0,0,0,1.306,31.169Z" transform="translate(0 -23.916)" fill="#c8c8c8"/>
      <path id="Path_13104" data-name="Path 13104" d="M206.581,172.965a7.949,7.949,0,0,0-3.25-2.385,11.767,11.767,0,0,0-4.743-.934,11.615,11.615,0,0,0-8.925,4.02c-.485.533-.838.417-.838-.3V171.62a1.306,1.306,0,0,0-1.306-1.306H182.85a1.306,1.306,0,0,0-1.306,1.306v22.849a1.306,1.306,0,0,0,1.306,1.306h5.227a1.306,1.306,0,0,0,1.306-1.306v-7.946a25.564,25.564,0,0,1,.6-6.807,5.621,5.621,0,0,1,2.218-2.957,6.286,6.286,0,0,1,3.655-1.116,4.664,4.664,0,0,1,2.72.781,4.353,4.353,0,0,1,1.632,2.19,23.361,23.361,0,0,1,.5,6.207v9.648a1.306,1.306,0,0,0,1.306,1.306h5.227a1.306,1.306,0,0,0,1.306-1.306V181.529a24.505,24.505,0,0,0-.432-5.272A8.635,8.635,0,0,0,206.581,172.965Z" transform="translate(-170.995 -161.471)" fill="#c8c8c8"/>
    </g>
  </g>
</svg>
