<svg xmlns="http://www.w3.org/2000/svg" width="16" height="12" viewBox="0 0 16 12">
  <defs>
    <style>
      .cls-1 {
        fill: #484848;
        fill-rule: evenodd;
      }
    </style>
  </defs>
  <path class="cls-1" d="M10.516,6.079l5.208,3.293V2.648ZM0.276,2.648V9.372L5.484,6.079ZM14.759,0.69H1.241A0.954,0.954,0,0,0,.3,1.511L8,6.581l7.7-5.07A0.954,0.954,0,0,0,14.759.69ZM9.632,6.662l-1.366.9a0.485,0.485,0,0,1-.531,0l-1.366-.9L0.307,10.5a0.952,0.952,0,0,0,.935.815H14.759a0.952,0.952,0,0,0,.935-0.815Z"/>
</svg>
