<svg xmlns="http://www.w3.org/2000/svg" width="19" height="15" viewBox="0 0 19 15">
  <defs>
    <style>
      .cls-1 {
        fill: #333;
        fill-rule: evenodd;
      }
    </style>
  </defs>
  <path class="cls-1" d="M9.8,3.132A4.019,4.019,0,0,1,13.864,7.1a3.769,3.769,0,0,1-.291,1.452l2.371,2.317A9.4,9.4,0,0,0,18.73,7.1,9.661,9.661,0,0,0,6.564,1.7L8.317,3.419A4.067,4.067,0,0,1,9.8,3.132ZM1.685,0.969l1.853,1.81L3.913,3.144A9.358,9.358,0,0,0,.873,7.1a9.679,9.679,0,0,0,12.485,5.286l0.34,0.335,2.38,2.317,1.032-1.01L2.715-.041ZM6.172,5.355L7.431,6.584a2.217,2.217,0,0,0-.064.514A2.406,2.406,0,0,0,9.8,9.478H9.8a2.329,2.329,0,0,0,.526-0.063l1.259,1.229a4.067,4.067,0,0,1-5.42-1.78,3.933,3.933,0,0,1-.427-1.77A3.875,3.875,0,0,1,6.172,5.355Zm3.5-.614,2.558,2.5,0.016-.126a2.406,2.406,0,0,0-2.431-2.38H9.808Z"/>
</svg>
