<svg xmlns="http://www.w3.org/2000/svg" width="20" height="20" viewBox="0 0 20 20">
  <defs>
    <style>
      .cls-1 {
        fill: #2d040c;
        fill-rule: evenodd;
      }
    </style>
  </defs>
  <path class="cls-1" d="M18.237,8.067H10.33a2.265,2.265,0,0,0-2.263,2.263v4.3L6.018,16.089a0.615,0.615,0,0,0,0,1l2.074,1.481A2.266,2.266,0,0,0,10.33,20.5h7.908A2.265,2.265,0,0,0,20.5,18.237V10.329A2.265,2.265,0,0,0,18.237,8.067Zm-2.659,8.645a0.259,0.259,0,0,1-.29-0.171l-0.251-.877H13.529l-0.25.877a0.259,0.259,0,0,1-.29.171,0.514,0.514,0,0,1-.54-0.356,0.387,0.387,0,0,1,.013-0.066l1.272-4.145a0.667,0.667,0,0,1,1.1,0l1.272,4.145a0.292,0.292,0,0,1,.013.066A0.522,0.522,0,0,1,15.578,16.712Zm-1.872-1.72h1.147L14.28,12.969Zm-6.87-4.662a3.476,3.476,0,0,1,.77-2.184,3.3,3.3,0,0,1-1.89-.593,3.3,3.3,0,0,1-1.89.593,0.347,0.347,0,0,1,0-.694,2.611,2.611,0,0,0,1.346-.372A3.309,3.309,0,0,1,4.3,5.171H3.826a0.347,0.347,0,1,1,0-.694H5.37V3.635a0.347,0.347,0,1,1,.694,0V4.477H7.607a0.347,0.347,0,1,1,0,.694H7.129a3.309,3.309,0,0,1-.868,1.908,2.609,2.609,0,0,0,1.346.372,0.347,0.347,0,0,1,.346.322,3.479,3.479,0,0,1,2.377-.937h1.6V5.374l2.049-1.463a0.615,0.615,0,0,0,0-1L11.909,1.428A2.267,2.267,0,0,0,9.67-.5H1.763A2.265,2.265,0,0,0-.5,1.762V9.671a2.265,2.265,0,0,0,2.263,2.263H6.836v-1.6ZM5.716,6.646a2.62,2.62,0,0,0,.713-1.474H5A2.622,2.622,0,0,0,5.716,6.646Z"/>
</svg>
