<svg xmlns="http://www.w3.org/2000/svg" width="18" height="18" viewBox="0 0 18 18">
  <defs>
    <style>
      .cls-1 {
        fill: #2d040c;
        fill-rule: evenodd;
      }
    </style>
  </defs>
  <path class="cls-1" d="M9,5.727A3.273,3.273,0,1,0,12.273,9h0A3.272,3.272,0,0,0,9,5.727H9Zm7.315,2.455a7.359,7.359,0,0,0-6.5-6.5V0H8.182V1.685a7.359,7.359,0,0,0-6.5,6.5H0V9.821H1.685a7.359,7.359,0,0,0,6.5,6.5V18H9.821V16.315a7.359,7.359,0,0,0,6.5-6.5H18V8.182H16.315ZM9,14.727a5.723,5.723,0,1,1,.008,0H9Z"/>
</svg>
