<svg xmlns="http://www.w3.org/2000/svg" width="12" height="16" viewBox="0 0 12 16">
  <defs>
    <style>
      .cls-1 {
        fill: #484848;
        fill-rule: evenodd;
      }
    </style>
  </defs>
  <path class="cls-1" d="M10.714,2.774A5.4,5.4,0,0,0,6.122.045c-0.081,0-.163,0-0.245,0A5.4,5.4,0,0,0,1.285,2.774a5.555,5.555,0,0,0-.072,5.484l3.949,7.236L5.167,15.5a0.959,0.959,0,0,0,1.665,0l0.005-.01,3.949-7.236a5.555,5.555,0,0,0-.072-5.484h0ZM6,7.268A2.242,2.242,0,1,1,8.239,5.026,2.243,2.243,0,0,1,6,7.268Z"/>
</svg>
