<svg xmlns="http://www.w3.org/2000/svg" width="15" height="21" viewBox="0 0 15 21">
  <defs>
    <style>
      .cls-1 {
        fill: #333;
        fill-rule: evenodd;
      }
    </style>
  </defs>
  <path class="cls-1" d="M7.567,1.229a6.563,6.563,0,0,0-6.418,6.7v0.01c0,5.031,6.418,12.458,6.418,12.458s6.418-7.427,6.418-12.458A6.564,6.564,0,0,0,7.576,1.229H7.567Zm0,9.1a2.346,2.346,0,0,1-2.293-2.4,2.346,2.346,0,0,1,2.293-2.4,2.346,2.346,0,0,1,2.293,2.4h0A2.347,2.347,0,0,1,7.567,10.333Z"/>
</svg>
