<svg xmlns="http://www.w3.org/2000/svg" width="15" height="15" viewBox="0 0 15 15">
  <defs>
    <style>
      .cls-1 {
        fill: #484848;
        fill-rule: evenodd;
      }
    </style>
  </defs>
  <path class="cls-1" d="M6.264,8.767A5.886,5.886,0,0,1,4.487,5.425,0.5,0.5,0,0,1,4.63,5.006L5.757,3.88a0.5,0.5,0,0,0,.071-0.623L4.034,0.473A0.5,0.5,0,0,0,3.382.289L0.5,1.645a0.5,0.5,0,0,0-.277.5,13.919,13.919,0,0,0,4.239,8.421A13.917,13.917,0,0,0,12.886,14.8a0.5,0.5,0,0,0,.5-0.277l1.356-2.88A0.5,0.5,0,0,0,14.559,11L11.774,9.2a0.5,0.5,0,0,0-.622.07L10.025,10.4a0.5,0.5,0,0,1-.418.144A5.887,5.887,0,0,1,6.264,8.767h0Zm5.529-.75a0.5,0.5,0,0,1-.5-0.5A3.777,3.777,0,0,0,7.517,3.742a0.5,0.5,0,1,1,0-1.006A4.784,4.784,0,0,1,12.3,7.514,0.5,0.5,0,0,1,11.793,8.017Zm2.515,0a0.5,0.5,0,0,1-.5-0.5A6.294,6.294,0,0,0,7.517,1.227a0.5,0.5,0,1,1,0-1.006,7.3,7.3,0,0,1,7.293,7.293A0.5,0.5,0,0,1,14.308,8.017Z"/>
</svg>
