<svg xmlns="http://www.w3.org/2000/svg" width="19" height="22" viewBox="0 0 19 22">
  <defs>
    <style>
      .cls-1 {
        fill: #333;
        fill-rule: evenodd;
      }
    </style>
  </defs>
  <path class="cls-1" d="M15.758,21.751H2.913a2.515,2.515,0,0,1-2.53-2.5v-1.5a5.653,5.653,0,0,1,5.683-5.607H6.846L7,12.222a5.637,5.637,0,0,0,4.669,0l0.155-.071h0.78a5.653,5.653,0,0,1,5.683,5.607v1.5A2.516,2.516,0,0,1,15.758,21.751ZM6.065,13.688A4.1,4.1,0,0,0,1.94,17.758v1.5a0.967,0.967,0,0,0,.973.96H15.758a0.969,0.969,0,0,0,.973-0.96v-1.5a4.1,4.1,0,0,0-4.126-4.071H12.162a7.22,7.22,0,0,1-5.652,0H6.065ZM9.336,11a5.419,5.419,0,0,1-5.45-5.376,5.45,5.45,0,0,1,10.9,0A5.419,5.419,0,0,1,9.336,11Zm0-9.216a3.871,3.871,0,0,0-3.893,3.84,3.893,3.893,0,0,0,7.785,0A3.871,3.871,0,0,0,9.336,1.784Z"/>
</svg>
