<?xml version="1.0" encoding="utf-8"?>
<!-- Generator: Adobe Illustrator 25.0.1, SVG Export Plug-In . SVG Version: 6.00 Build 0)  -->
<svg version="1.1" id="Layer_1" xmlns="http://www.w3.org/2000/svg" xmlns:xlink="http://www.w3.org/1999/xlink" x="0px" y="0px"
	 viewBox="0 0 24 24" style="enable-background:new 0 0 24 24;" xml:space="preserve">
<style type="text/css">
	.st0{fill:none;stroke:#484848;stroke-width:2;stroke-linecap:round;stroke-linejoin:round;}
	.st1{fill:none;}
</style>
<g id="Group_7336" transform="translate(-3416 -8)">
	<g id="Icon_feather-share-2" transform="translate(3415.5 8)">
		<path id="Path_9857" class="st0" d="M20.53,5.67c0,1.48-1.2,2.67-2.67,2.67s-2.67-1.2-2.67-2.67S16.38,3,17.85,3l0,0
			C19.33,3,20.53,4.2,20.53,5.67z"/>
		<path id="Path_9858" class="st0" d="M9.84,11.9c0,1.48-1.2,2.67-2.67,2.67c-1.48,0-2.67-1.2-2.67-2.67c0-1.48,1.2-2.67,2.67-2.67
			h0C8.65,9.23,9.84,10.43,9.84,11.9z"/>
		<path id="Path_9859" class="st0" d="M20.53,18.14c0,1.48-1.2,2.67-2.67,2.67c-1.48,0-2.67-1.2-2.67-2.67
			c0-1.48,1.2-2.67,2.67-2.67c0,0,0,0,0,0C19.33,15.47,20.53,16.66,20.53,18.14z"/>
		<path id="Path_9860" class="st0" d="M9.48,13.25l6.08,3.54"/>
		<path id="Path_9861" class="st0" d="M15.55,7.02l-6.07,3.54"/>
	</g>
	<rect id="Rectangle_1386" x="3416" y="8" class="st1" width="24" height="24"/>
</g>
</svg>
